<mxfile host="app.diagrams.net" agent="Mozilla/5.0 (Windows NT 10.0; Win64; x64) AppleWebKit/537.36 (KHTML, like Gecko) Chrome/133.0.0.0 Safari/537.36" version="27.1.4">
  <diagram name="Página-1" id="baxvipGkORlWHLTYvz9X">
    <mxGraphModel dx="1613" dy="459" grid="1" gridSize="10" guides="1" tooltips="1" connect="1" arrows="1" fold="1" page="1" pageScale="1" pageWidth="827" pageHeight="1169" math="0" shadow="0">
      <root>
        <mxCell id="0" />
        <mxCell id="1" parent="0" />
        <mxCell id="xlq-TzQMv9jEfVlz9D_0-5" style="edgeStyle=orthogonalEdgeStyle;rounded=0;orthogonalLoop=1;jettySize=auto;html=1;exitX=0.25;exitY=0;exitDx=0;exitDy=0;entryX=0.5;entryY=1;entryDx=0;entryDy=0;endArrow=none;startFill=0;" edge="1" parent="1" source="xlq-TzQMv9jEfVlz9D_0-1" target="xlq-TzQMv9jEfVlz9D_0-4">
          <mxGeometry relative="1" as="geometry" />
        </mxCell>
        <mxCell id="xlq-TzQMv9jEfVlz9D_0-8" style="edgeStyle=orthogonalEdgeStyle;shape=connector;rounded=0;orthogonalLoop=1;jettySize=auto;html=1;exitX=0.75;exitY=0;exitDx=0;exitDy=0;entryX=0.5;entryY=1;entryDx=0;entryDy=0;strokeColor=default;align=center;verticalAlign=middle;fontFamily=Helvetica;fontSize=11;fontColor=default;labelBackgroundColor=default;startFill=0;endArrow=none;" edge="1" parent="1" source="xlq-TzQMv9jEfVlz9D_0-1" target="xlq-TzQMv9jEfVlz9D_0-7">
          <mxGeometry relative="1" as="geometry" />
        </mxCell>
        <mxCell id="xlq-TzQMv9jEfVlz9D_0-10" style="edgeStyle=orthogonalEdgeStyle;shape=connector;rounded=0;orthogonalLoop=1;jettySize=auto;html=1;exitX=0.25;exitY=1;exitDx=0;exitDy=0;entryX=0.5;entryY=0;entryDx=0;entryDy=0;strokeColor=default;align=center;verticalAlign=middle;fontFamily=Helvetica;fontSize=11;fontColor=default;labelBackgroundColor=default;startFill=0;endArrow=none;" edge="1" parent="1" source="xlq-TzQMv9jEfVlz9D_0-1" target="xlq-TzQMv9jEfVlz9D_0-9">
          <mxGeometry relative="1" as="geometry" />
        </mxCell>
        <mxCell id="xlq-TzQMv9jEfVlz9D_0-35" style="edgeStyle=orthogonalEdgeStyle;shape=connector;rounded=0;orthogonalLoop=1;jettySize=auto;html=1;exitX=0.5;exitY=0;exitDx=0;exitDy=0;entryX=0.5;entryY=1;entryDx=0;entryDy=0;strokeColor=default;align=center;verticalAlign=middle;fontFamily=Helvetica;fontSize=11;fontColor=default;labelBackgroundColor=default;startFill=0;endArrow=none;" edge="1" parent="1" source="xlq-TzQMv9jEfVlz9D_0-1" target="xlq-TzQMv9jEfVlz9D_0-34">
          <mxGeometry relative="1" as="geometry" />
        </mxCell>
        <mxCell id="xlq-TzQMv9jEfVlz9D_0-36" style="edgeStyle=orthogonalEdgeStyle;shape=connector;rounded=0;orthogonalLoop=1;jettySize=auto;html=1;exitX=0.75;exitY=1;exitDx=0;exitDy=0;entryX=0.5;entryY=0;entryDx=0;entryDy=0;strokeColor=default;align=center;verticalAlign=middle;fontFamily=Helvetica;fontSize=11;fontColor=default;labelBackgroundColor=default;startFill=0;endArrow=none;" edge="1" parent="1" source="xlq-TzQMv9jEfVlz9D_0-1" target="xlq-TzQMv9jEfVlz9D_0-13">
          <mxGeometry relative="1" as="geometry" />
        </mxCell>
        <mxCell id="xlq-TzQMv9jEfVlz9D_0-1" value="Usuario" style="rounded=1;arcSize=10;whiteSpace=wrap;html=1;align=center;" vertex="1" parent="1">
          <mxGeometry x="60" y="225" width="100" height="40" as="geometry" />
        </mxCell>
        <mxCell id="xlq-TzQMv9jEfVlz9D_0-25" style="edgeStyle=orthogonalEdgeStyle;shape=connector;rounded=0;orthogonalLoop=1;jettySize=auto;html=1;exitX=0.25;exitY=0;exitDx=0;exitDy=0;entryX=0.5;entryY=1;entryDx=0;entryDy=0;strokeColor=default;align=center;verticalAlign=middle;fontFamily=Helvetica;fontSize=11;fontColor=default;labelBackgroundColor=default;startFill=0;endArrow=none;" edge="1" parent="1" source="xlq-TzQMv9jEfVlz9D_0-2" target="xlq-TzQMv9jEfVlz9D_0-24">
          <mxGeometry relative="1" as="geometry" />
        </mxCell>
        <mxCell id="xlq-TzQMv9jEfVlz9D_0-26" style="edgeStyle=orthogonalEdgeStyle;shape=connector;rounded=0;orthogonalLoop=1;jettySize=auto;html=1;exitX=0.75;exitY=0;exitDx=0;exitDy=0;entryX=0.5;entryY=1;entryDx=0;entryDy=0;strokeColor=default;align=center;verticalAlign=middle;fontFamily=Helvetica;fontSize=11;fontColor=default;labelBackgroundColor=default;startFill=0;endArrow=none;" edge="1" parent="1" source="xlq-TzQMv9jEfVlz9D_0-2" target="xlq-TzQMv9jEfVlz9D_0-23">
          <mxGeometry relative="1" as="geometry" />
        </mxCell>
        <mxCell id="xlq-TzQMv9jEfVlz9D_0-29" style="edgeStyle=orthogonalEdgeStyle;shape=connector;rounded=0;orthogonalLoop=1;jettySize=auto;html=1;exitX=0.25;exitY=1;exitDx=0;exitDy=0;entryX=0.5;entryY=0;entryDx=0;entryDy=0;strokeColor=default;align=center;verticalAlign=middle;fontFamily=Helvetica;fontSize=11;fontColor=default;labelBackgroundColor=default;startFill=0;endArrow=none;" edge="1" parent="1" source="xlq-TzQMv9jEfVlz9D_0-2" target="xlq-TzQMv9jEfVlz9D_0-28">
          <mxGeometry relative="1" as="geometry" />
        </mxCell>
        <mxCell id="xlq-TzQMv9jEfVlz9D_0-31" style="edgeStyle=orthogonalEdgeStyle;shape=connector;rounded=0;orthogonalLoop=1;jettySize=auto;html=1;exitX=0.75;exitY=1;exitDx=0;exitDy=0;entryX=0.5;entryY=0;entryDx=0;entryDy=0;strokeColor=default;align=center;verticalAlign=middle;fontFamily=Helvetica;fontSize=11;fontColor=default;labelBackgroundColor=default;startFill=0;endArrow=none;" edge="1" parent="1" source="xlq-TzQMv9jEfVlz9D_0-2" target="xlq-TzQMv9jEfVlz9D_0-30">
          <mxGeometry relative="1" as="geometry" />
        </mxCell>
        <mxCell id="xlq-TzQMv9jEfVlz9D_0-33" style="edgeStyle=orthogonalEdgeStyle;shape=connector;rounded=0;orthogonalLoop=1;jettySize=auto;html=1;exitX=0.5;exitY=1;exitDx=0;exitDy=0;entryX=0.5;entryY=0;entryDx=0;entryDy=0;strokeColor=default;align=center;verticalAlign=middle;fontFamily=Helvetica;fontSize=11;fontColor=default;labelBackgroundColor=default;startFill=0;endArrow=none;" edge="1" parent="1" source="xlq-TzQMv9jEfVlz9D_0-2" target="xlq-TzQMv9jEfVlz9D_0-32">
          <mxGeometry relative="1" as="geometry" />
        </mxCell>
        <mxCell id="xlq-TzQMv9jEfVlz9D_0-49" style="edgeStyle=orthogonalEdgeStyle;shape=connector;rounded=0;orthogonalLoop=1;jettySize=auto;html=1;exitX=0.5;exitY=0;exitDx=0;exitDy=0;entryX=0.5;entryY=1;entryDx=0;entryDy=0;strokeColor=default;align=center;verticalAlign=middle;fontFamily=Helvetica;fontSize=11;fontColor=default;labelBackgroundColor=default;startFill=0;endArrow=none;" edge="1" parent="1" source="xlq-TzQMv9jEfVlz9D_0-2" target="xlq-TzQMv9jEfVlz9D_0-48">
          <mxGeometry relative="1" as="geometry" />
        </mxCell>
        <mxCell id="xlq-TzQMv9jEfVlz9D_0-2" value="Carro" style="rounded=1;arcSize=10;whiteSpace=wrap;html=1;align=center;" vertex="1" parent="1">
          <mxGeometry x="450" y="225" width="100" height="40" as="geometry" />
        </mxCell>
        <mxCell id="xlq-TzQMv9jEfVlz9D_0-4" value="usuarioID" style="ellipse;whiteSpace=wrap;html=1;align=center;fontStyle=4;" vertex="1" parent="1">
          <mxGeometry x="40" y="155" width="60" height="50" as="geometry" />
        </mxCell>
        <mxCell id="xlq-TzQMv9jEfVlz9D_0-16" style="edgeStyle=orthogonalEdgeStyle;shape=connector;rounded=0;orthogonalLoop=1;jettySize=auto;html=1;exitX=0;exitY=0;exitDx=0;exitDy=0;entryX=0.5;entryY=1;entryDx=0;entryDy=0;strokeColor=default;align=center;verticalAlign=middle;fontFamily=Helvetica;fontSize=11;fontColor=default;labelBackgroundColor=default;startFill=0;endArrow=none;" edge="1" parent="1" source="xlq-TzQMv9jEfVlz9D_0-6" target="xlq-TzQMv9jEfVlz9D_0-15">
          <mxGeometry relative="1" as="geometry" />
        </mxCell>
        <mxCell id="xlq-TzQMv9jEfVlz9D_0-18" style="edgeStyle=orthogonalEdgeStyle;shape=connector;rounded=0;orthogonalLoop=1;jettySize=auto;html=1;exitX=1;exitY=1;exitDx=0;exitDy=0;entryX=0.5;entryY=0;entryDx=0;entryDy=0;strokeColor=default;align=center;verticalAlign=middle;fontFamily=Helvetica;fontSize=11;fontColor=default;labelBackgroundColor=default;startFill=0;endArrow=none;" edge="1" parent="1" source="xlq-TzQMv9jEfVlz9D_0-6" target="xlq-TzQMv9jEfVlz9D_0-17">
          <mxGeometry relative="1" as="geometry" />
        </mxCell>
        <mxCell id="xlq-TzQMv9jEfVlz9D_0-6" value="Aluguel" style="shape=rhombus;perimeter=rhombusPerimeter;whiteSpace=wrap;html=1;align=center;fontFamily=Helvetica;fontSize=11;fontColor=default;labelBackgroundColor=default;" vertex="1" parent="1">
          <mxGeometry x="250" y="215" width="120" height="60" as="geometry" />
        </mxCell>
        <mxCell id="xlq-TzQMv9jEfVlz9D_0-7" value="Nome" style="ellipse;whiteSpace=wrap;html=1;align=center;fontFamily=Helvetica;fontSize=11;fontColor=default;labelBackgroundColor=default;" vertex="1" parent="1">
          <mxGeometry x="120" y="160" width="50" height="40" as="geometry" />
        </mxCell>
        <mxCell id="xlq-TzQMv9jEfVlz9D_0-9" value="Email" style="ellipse;whiteSpace=wrap;html=1;align=center;fontFamily=Helvetica;fontSize=11;fontColor=default;labelBackgroundColor=default;" vertex="1" parent="1">
          <mxGeometry x="55" y="285" width="50" height="40" as="geometry" />
        </mxCell>
        <mxCell id="xlq-TzQMv9jEfVlz9D_0-13" value="Data&lt;div&gt;Registro&lt;/div&gt;" style="ellipse;whiteSpace=wrap;html=1;align=center;fontFamily=Helvetica;fontSize=11;fontColor=default;labelBackgroundColor=default;" vertex="1" parent="1">
          <mxGeometry x="115" y="285" width="60" height="40" as="geometry" />
        </mxCell>
        <mxCell id="xlq-TzQMv9jEfVlz9D_0-15" value="Data&lt;div&gt;Aluguel&lt;/div&gt;" style="ellipse;whiteSpace=wrap;html=1;align=center;fontFamily=Helvetica;fontSize=11;fontColor=default;labelBackgroundColor=default;" vertex="1" parent="1">
          <mxGeometry x="260" y="155" width="50" height="40" as="geometry" />
        </mxCell>
        <mxCell id="xlq-TzQMv9jEfVlz9D_0-17" value="Data&lt;div&gt;Devolução&lt;/div&gt;" style="ellipse;whiteSpace=wrap;html=1;align=center;fontFamily=Helvetica;fontSize=11;fontColor=default;labelBackgroundColor=default;" vertex="1" parent="1">
          <mxGeometry x="290" y="295" width="70" height="40" as="geometry" />
        </mxCell>
        <mxCell id="xlq-TzQMv9jEfVlz9D_0-19" value="" style="edgeStyle=entityRelationEdgeStyle;fontSize=12;html=1;endArrow=ERzeroToMany;endFill=1;rounded=0;strokeColor=default;align=center;verticalAlign=middle;fontFamily=Helvetica;fontColor=default;labelBackgroundColor=default;entryX=0;entryY=0.5;entryDx=0;entryDy=0;exitX=1;exitY=0.5;exitDx=0;exitDy=0;" edge="1" parent="1" source="xlq-TzQMv9jEfVlz9D_0-6" target="xlq-TzQMv9jEfVlz9D_0-2">
          <mxGeometry width="100" height="100" relative="1" as="geometry">
            <mxPoint x="180" y="295" as="sourcePoint" />
            <mxPoint x="280" y="195" as="targetPoint" />
          </mxGeometry>
        </mxCell>
        <mxCell id="xlq-TzQMv9jEfVlz9D_0-21" value="(0, n)" style="edgeLabel;html=1;align=center;verticalAlign=middle;resizable=0;points=[];fontFamily=Helvetica;fontSize=11;fontColor=default;labelBackgroundColor=default;" vertex="1" connectable="0" parent="xlq-TzQMv9jEfVlz9D_0-19">
          <mxGeometry x="0.3" y="1" relative="1" as="geometry">
            <mxPoint x="-4" y="1" as="offset" />
          </mxGeometry>
        </mxCell>
        <mxCell id="xlq-TzQMv9jEfVlz9D_0-20" value="" style="edgeStyle=entityRelationEdgeStyle;fontSize=12;html=1;endArrow=ERzeroToMany;endFill=1;rounded=0;strokeColor=default;align=center;verticalAlign=middle;fontFamily=Helvetica;fontColor=default;labelBackgroundColor=default;entryX=1;entryY=0.5;entryDx=0;entryDy=0;exitX=0;exitY=0.5;exitDx=0;exitDy=0;" edge="1" parent="1" source="xlq-TzQMv9jEfVlz9D_0-6" target="xlq-TzQMv9jEfVlz9D_0-1">
          <mxGeometry width="100" height="100" relative="1" as="geometry">
            <mxPoint x="180" y="295" as="sourcePoint" />
            <mxPoint x="280" y="195" as="targetPoint" />
          </mxGeometry>
        </mxCell>
        <mxCell id="xlq-TzQMv9jEfVlz9D_0-22" value="(0, n)" style="edgeLabel;html=1;align=center;verticalAlign=middle;resizable=0;points=[];fontFamily=Helvetica;fontSize=11;fontColor=default;labelBackgroundColor=default;" vertex="1" connectable="0" parent="xlq-TzQMv9jEfVlz9D_0-20">
          <mxGeometry x="0.3778" y="1" relative="1" as="geometry">
            <mxPoint x="3" y="-2" as="offset" />
          </mxGeometry>
        </mxCell>
        <mxCell id="xlq-TzQMv9jEfVlz9D_0-23" value="Marca" style="ellipse;whiteSpace=wrap;html=1;align=center;fontFamily=Helvetica;fontSize=11;fontColor=default;labelBackgroundColor=default;" vertex="1" parent="1">
          <mxGeometry x="510" y="155" width="50" height="40" as="geometry" />
        </mxCell>
        <mxCell id="xlq-TzQMv9jEfVlz9D_0-24" value="carroID" style="ellipse;whiteSpace=wrap;html=1;align=center;fontStyle=4;" vertex="1" parent="1">
          <mxGeometry x="435" y="150" width="60" height="50" as="geometry" />
        </mxCell>
        <mxCell id="xlq-TzQMv9jEfVlz9D_0-28" value="Cor" style="ellipse;whiteSpace=wrap;html=1;align=center;fontFamily=Helvetica;fontSize=11;fontColor=default;labelBackgroundColor=default;" vertex="1" parent="1">
          <mxGeometry x="440" y="285" width="50" height="40" as="geometry" />
        </mxCell>
        <mxCell id="xlq-TzQMv9jEfVlz9D_0-30" value="Modelo" style="ellipse;whiteSpace=wrap;html=1;align=center;fontFamily=Helvetica;fontSize=11;fontColor=default;labelBackgroundColor=default;" vertex="1" parent="1">
          <mxGeometry x="510" y="285" width="50" height="40" as="geometry" />
        </mxCell>
        <mxCell id="xlq-TzQMv9jEfVlz9D_0-32" value="Placa" style="ellipse;whiteSpace=wrap;html=1;align=center;fontFamily=Helvetica;fontSize=11;fontColor=default;labelBackgroundColor=default;" vertex="1" parent="1">
          <mxGeometry x="475" y="335" width="50" height="40" as="geometry" />
        </mxCell>
        <mxCell id="xlq-TzQMv9jEfVlz9D_0-34" value="Senha" style="ellipse;whiteSpace=wrap;html=1;align=center;fontFamily=Helvetica;fontSize=11;fontColor=default;labelBackgroundColor=default;" vertex="1" parent="1">
          <mxGeometry x="85" y="115" width="50" height="40" as="geometry" />
        </mxCell>
        <mxCell id="xlq-TzQMv9jEfVlz9D_0-42" style="edgeStyle=orthogonalEdgeStyle;shape=connector;rounded=0;orthogonalLoop=1;jettySize=auto;html=1;exitX=0.25;exitY=0;exitDx=0;exitDy=0;entryX=0.5;entryY=1;entryDx=0;entryDy=0;strokeColor=default;align=center;verticalAlign=middle;fontFamily=Helvetica;fontSize=11;fontColor=default;labelBackgroundColor=default;startFill=0;endArrow=none;" edge="1" parent="1" source="xlq-TzQMv9jEfVlz9D_0-37" target="xlq-TzQMv9jEfVlz9D_0-41">
          <mxGeometry relative="1" as="geometry" />
        </mxCell>
        <mxCell id="xlq-TzQMv9jEfVlz9D_0-43" style="edgeStyle=orthogonalEdgeStyle;shape=connector;rounded=0;orthogonalLoop=1;jettySize=auto;html=1;exitX=0.25;exitY=1;exitDx=0;exitDy=0;entryX=0.5;entryY=0;entryDx=0;entryDy=0;strokeColor=default;align=center;verticalAlign=middle;fontFamily=Helvetica;fontSize=11;fontColor=default;labelBackgroundColor=default;startFill=0;endArrow=none;" edge="1" parent="1" source="xlq-TzQMv9jEfVlz9D_0-37" target="xlq-TzQMv9jEfVlz9D_0-40">
          <mxGeometry relative="1" as="geometry" />
        </mxCell>
        <mxCell id="xlq-TzQMv9jEfVlz9D_0-37" value="Cliente" style="rounded=1;arcSize=10;whiteSpace=wrap;html=1;align=center;fontFamily=Helvetica;fontSize=11;fontColor=default;labelBackgroundColor=default;" vertex="1" parent="1">
          <mxGeometry x="-190" y="225" width="100" height="40" as="geometry" />
        </mxCell>
        <mxCell id="xlq-TzQMv9jEfVlz9D_0-38" value="" style="edgeStyle=entityRelationEdgeStyle;fontSize=12;html=1;endArrow=ERzeroToOne;startArrow=ERmandOne;rounded=0;strokeColor=default;align=center;verticalAlign=middle;fontFamily=Helvetica;fontColor=default;labelBackgroundColor=default;exitX=0;exitY=0.5;exitDx=0;exitDy=0;dashed=1;entryX=1;entryY=0.5;entryDx=0;entryDy=0;" edge="1" parent="1" source="xlq-TzQMv9jEfVlz9D_0-1" target="xlq-TzQMv9jEfVlz9D_0-37">
          <mxGeometry width="100" height="100" relative="1" as="geometry">
            <mxPoint x="20" y="340" as="sourcePoint" />
            <mxPoint x="-20" y="200" as="targetPoint" />
          </mxGeometry>
        </mxCell>
        <mxCell id="xlq-TzQMv9jEfVlz9D_0-45" value="(0,1)" style="edgeLabel;html=1;align=center;verticalAlign=middle;resizable=0;points=[];fontFamily=Helvetica;fontSize=11;fontColor=default;labelBackgroundColor=default;" vertex="1" connectable="0" parent="xlq-TzQMv9jEfVlz9D_0-38">
          <mxGeometry x="0.6078" y="2" relative="1" as="geometry">
            <mxPoint y="-4" as="offset" />
          </mxGeometry>
        </mxCell>
        <mxCell id="xlq-TzQMv9jEfVlz9D_0-47" value="(1,1)" style="edgeLabel;html=1;align=center;verticalAlign=middle;resizable=0;points=[];fontFamily=Helvetica;fontSize=11;fontColor=default;labelBackgroundColor=default;" vertex="1" connectable="0" parent="xlq-TzQMv9jEfVlz9D_0-38">
          <mxGeometry x="-0.6431" y="-1" relative="1" as="geometry">
            <mxPoint as="offset" />
          </mxGeometry>
        </mxCell>
        <mxCell id="xlq-TzQMv9jEfVlz9D_0-40" value="CNH" style="ellipse;whiteSpace=wrap;html=1;align=center;fontStyle=4;" vertex="1" parent="1">
          <mxGeometry x="-190" y="290" width="60" height="50" as="geometry" />
        </mxCell>
        <mxCell id="xlq-TzQMv9jEfVlz9D_0-41" value="usuarioID" style="ellipse;whiteSpace=wrap;html=1;align=center;fontStyle=4;" vertex="1" parent="1">
          <mxGeometry x="-190" y="150" width="60" height="50" as="geometry" />
        </mxCell>
        <mxCell id="xlq-TzQMv9jEfVlz9D_0-48" value="Diária" style="ellipse;whiteSpace=wrap;html=1;align=center;fontFamily=Helvetica;fontSize=11;fontColor=default;labelBackgroundColor=default;" vertex="1" parent="1">
          <mxGeometry x="475" y="100" width="50" height="40" as="geometry" />
        </mxCell>
      </root>
    </mxGraphModel>
  </diagram>
</mxfile>
